<mxfile host="app.diagrams.net" modified="2021-10-30T05:43:52.635Z" agent="5.0 (Windows NT 10.0; Win64; x64) AppleWebKit/537.36 (KHTML, like Gecko) Chrome/95.0.4638.69 Safari/537.36" etag="nICLMt1GpHAIsLbcY1V7" version="15.6.2" type="github">
  <diagram id="prtHgNgQTEPvFCAcTncT" name="Page-1">
    <mxGraphModel dx="1718" dy="806" grid="1" gridSize="10" guides="1" tooltips="1" connect="1" arrows="1" fold="1" page="1" pageScale="1" pageWidth="827" pageHeight="1169" math="0" shadow="0">
      <root>
        <mxCell id="0" />
        <mxCell id="1" parent="0" />
        <mxCell id="g3FacJts447bwH2BUUsu-43" value="" style="shape=process;whiteSpace=wrap;html=1;backgroundOutline=1;rounded=1;" parent="1" vertex="1">
          <mxGeometry x="74" y="19" width="600" height="230" as="geometry" />
        </mxCell>
        <mxCell id="g3FacJts447bwH2BUUsu-44" value="" style="ellipse;whiteSpace=wrap;html=1;aspect=fixed;fillColor=#b0e3e6;strokeColor=#0e8088;rounded=1;" parent="1" vertex="1">
          <mxGeometry x="153" y="94" width="80" height="80" as="geometry" />
        </mxCell>
        <mxCell id="g3FacJts447bwH2BUUsu-45" value="" style="ellipse;whiteSpace=wrap;html=1;aspect=fixed;fillColor=#d0cee2;strokeColor=#56517e;rounded=1;" parent="1" vertex="1">
          <mxGeometry x="272" y="94" width="80" height="80" as="geometry" />
        </mxCell>
        <mxCell id="g3FacJts447bwH2BUUsu-46" value="" style="ellipse;whiteSpace=wrap;html=1;aspect=fixed;fillColor=#bac8d3;strokeColor=#23445d;rounded=1;" parent="1" vertex="1">
          <mxGeometry x="513" y="94" width="80" height="80" as="geometry" />
        </mxCell>
        <mxCell id="g3FacJts447bwH2BUUsu-47" value="" style="ellipse;whiteSpace=wrap;html=1;aspect=fixed;fillColor=#fad7ac;strokeColor=#b46504;rounded=1;" parent="1" vertex="1">
          <mxGeometry x="392" y="94" width="80" height="80" as="geometry" />
        </mxCell>
        <mxCell id="g3FacJts447bwH2BUUsu-50" value="&lt;b style=&quot;font-size: 16px&quot;&gt;G&lt;/b&gt;" style="text;html=1;strokeColor=none;fillColor=none;align=center;verticalAlign=middle;whiteSpace=wrap;rounded=1;fontSize=16;" parent="1" vertex="1">
          <mxGeometry x="163" y="119" width="60" height="30" as="geometry" />
        </mxCell>
        <mxCell id="g3FacJts447bwH2BUUsu-51" value="&lt;b style=&quot;font-size: 16px&quot;&gt;M&lt;/b&gt;" style="text;html=1;strokeColor=none;fillColor=none;align=center;verticalAlign=middle;whiteSpace=wrap;rounded=1;fontSize=16;" parent="1" vertex="1">
          <mxGeometry x="282" y="119" width="60" height="30" as="geometry" />
        </mxCell>
        <mxCell id="g3FacJts447bwH2BUUsu-52" value="T" style="text;html=1;strokeColor=none;fillColor=none;align=center;verticalAlign=middle;whiteSpace=wrap;fontStyle=1;rounded=1;fontSize=16;" parent="1" vertex="1">
          <mxGeometry x="403" y="119" width="60" height="30" as="geometry" />
        </mxCell>
        <mxCell id="g3FacJts447bwH2BUUsu-53" value="&lt;b style=&quot;font-size: 16px&quot;&gt;A&lt;/b&gt;" style="text;html=1;strokeColor=none;fillColor=none;align=center;verticalAlign=middle;whiteSpace=wrap;rounded=1;fontSize=16;" parent="1" vertex="1">
          <mxGeometry x="523" y="119" width="60" height="30" as="geometry" />
        </mxCell>
        <mxCell id="g3FacJts447bwH2BUUsu-56" value="" style="shape=process;whiteSpace=wrap;html=1;backgroundOutline=1;rounded=1;gradientColor=#E8E8E8;" parent="1" vertex="1">
          <mxGeometry x="74" y="249" width="600" height="230" as="geometry" />
        </mxCell>
        <mxCell id="g3FacJts447bwH2BUUsu-57" value="" style="ellipse;whiteSpace=wrap;html=1;aspect=fixed;fillColor=#b0e3e6;strokeColor=#0e8088;rounded=1;" parent="1" vertex="1">
          <mxGeometry x="154" y="329" width="80" height="80" as="geometry" />
        </mxCell>
        <mxCell id="g3FacJts447bwH2BUUsu-58" value="" style="ellipse;whiteSpace=wrap;html=1;aspect=fixed;fillColor=#d0cee2;strokeColor=#56517e;rounded=1;" parent="1" vertex="1">
          <mxGeometry x="274" y="329" width="80" height="80" as="geometry" />
        </mxCell>
        <mxCell id="g3FacJts447bwH2BUUsu-59" value="" style="ellipse;whiteSpace=wrap;html=1;aspect=fixed;fillColor=#bac8d3;strokeColor=#23445d;rounded=1;" parent="1" vertex="1">
          <mxGeometry x="514" y="329" width="80" height="80" as="geometry" />
        </mxCell>
        <mxCell id="g3FacJts447bwH2BUUsu-60" value="" style="ellipse;whiteSpace=wrap;html=1;aspect=fixed;fillColor=#fad7ac;strokeColor=#b46504;rounded=1;" parent="1" vertex="1">
          <mxGeometry x="394" y="329" width="80" height="80" as="geometry" />
        </mxCell>
        <mxCell id="g3FacJts447bwH2BUUsu-67" value="" style="shape=process;whiteSpace=wrap;html=1;backgroundOutline=1;rounded=1;fillColor=#E8E8E8;" parent="1" vertex="1">
          <mxGeometry x="74" y="479" width="600" height="230" as="geometry" />
        </mxCell>
        <mxCell id="g3FacJts447bwH2BUUsu-68" value="" style="ellipse;whiteSpace=wrap;html=1;aspect=fixed;fillColor=#b0e3e6;strokeColor=#0e8088;rounded=1;" parent="1" vertex="1">
          <mxGeometry x="154" y="559" width="80" height="80" as="geometry" />
        </mxCell>
        <mxCell id="g3FacJts447bwH2BUUsu-69" value="" style="ellipse;whiteSpace=wrap;html=1;aspect=fixed;fillColor=#d0cee2;strokeColor=#56517e;rounded=1;" parent="1" vertex="1">
          <mxGeometry x="274" y="559" width="80" height="80" as="geometry" />
        </mxCell>
        <mxCell id="g3FacJts447bwH2BUUsu-70" value="" style="ellipse;whiteSpace=wrap;html=1;aspect=fixed;fillColor=#bac8d3;strokeColor=#23445d;rounded=1;" parent="1" vertex="1">
          <mxGeometry x="514" y="559" width="80" height="80" as="geometry" />
        </mxCell>
        <mxCell id="g3FacJts447bwH2BUUsu-71" value="" style="ellipse;whiteSpace=wrap;html=1;aspect=fixed;fillColor=#fad7ac;strokeColor=#b46504;rounded=1;" parent="1" vertex="1">
          <mxGeometry x="394" y="559" width="80" height="80" as="geometry" />
        </mxCell>
        <mxCell id="g3FacJts447bwH2BUUsu-77" value="" style="shape=process;whiteSpace=wrap;html=1;backgroundOutline=1;fillColor=#e8e8e8;strokeColor=#666666;rounded=1;gradientColor=#CCCCCC;" parent="1" vertex="1">
          <mxGeometry x="74" y="709" width="600" height="230" as="geometry" />
        </mxCell>
        <mxCell id="g3FacJts447bwH2BUUsu-83" value="&lt;i style=&quot;font-size: 14px&quot;&gt;SACRIFICE &lt;b&gt;ANY&amp;nbsp;TWO &lt;/b&gt;CREATURES&lt;b&gt;&lt;br&gt;&lt;/b&gt;TO ADVANCE&amp;nbsp;&lt;b&gt;ONE CORRESPONDING PAWN&amp;nbsp;&lt;/b&gt;HERE&lt;/i&gt;" style="text;html=1;strokeColor=none;fillColor=none;align=center;verticalAlign=middle;whiteSpace=wrap;rounded=1;" parent="1" vertex="1">
          <mxGeometry x="133" y="718" width="480" height="30" as="geometry" />
        </mxCell>
        <mxCell id="g3FacJts447bwH2BUUsu-85" value="&lt;i&gt;exactly&lt;/i&gt;&lt;br&gt;1 PWR" style="text;html=1;strokeColor=none;fillColor=none;align=center;verticalAlign=middle;whiteSpace=wrap;rounded=1;" parent="1" vertex="1">
          <mxGeometry x="164" y="584" width="60" height="30" as="geometry" />
        </mxCell>
        <mxCell id="g3FacJts447bwH2BUUsu-86" value="1 PWR&lt;br&gt;&lt;i&gt;or&lt;/i&gt;&lt;br&gt;3 PWR" style="text;html=1;strokeColor=none;fillColor=none;align=center;verticalAlign=middle;whiteSpace=wrap;rounded=1;" parent="1" vertex="1">
          <mxGeometry x="284" y="584" width="60" height="30" as="geometry" />
        </mxCell>
        <mxCell id="g3FacJts447bwH2BUUsu-87" value="&lt;i&gt;at least&lt;/i&gt;&lt;br&gt;2 PWR" style="text;html=1;strokeColor=none;fillColor=none;align=center;verticalAlign=middle;whiteSpace=wrap;rounded=1;" parent="1" vertex="1">
          <mxGeometry x="404" y="584" width="60" height="30" as="geometry" />
        </mxCell>
        <mxCell id="g3FacJts447bwH2BUUsu-90" value="&lt;font style=&quot;font-size: 16px&quot; color=&quot;#99004d&quot;&gt;BASE THREAT&lt;/font&gt;" style="text;html=1;strokeColor=none;fillColor=none;align=center;verticalAlign=middle;whiteSpace=wrap;horizontal=0;fontStyle=1;rounded=1;" parent="1" vertex="1">
          <mxGeometry x="74" y="249" width="60" height="230" as="geometry" />
        </mxCell>
        <mxCell id="g3FacJts447bwH2BUUsu-97" value="" style="shape=process;whiteSpace=wrap;html=1;backgroundOutline=1;rounded=1;fillColor=#CCCCCC;strokeColor=#666666;gradientColor=#969696;" parent="1" vertex="1">
          <mxGeometry x="74" y="1171" width="600" height="230" as="geometry" />
        </mxCell>
        <mxCell id="g3FacJts447bwH2BUUsu-98" value="&lt;font style=&quot;font-size: 16px&quot;&gt;2&lt;/font&gt;" style="ellipse;whiteSpace=wrap;html=1;aspect=fixed;fillColor=#b0e3e6;strokeColor=#0e8088;rounded=1;" parent="1" vertex="1">
          <mxGeometry x="153" y="818" width="80" height="80" as="geometry" />
        </mxCell>
        <mxCell id="g3FacJts447bwH2BUUsu-99" value="&lt;font style=&quot;font-size: 16px&quot;&gt;2&lt;/font&gt;" style="ellipse;whiteSpace=wrap;html=1;aspect=fixed;fillColor=#d0cee2;strokeColor=#56517e;rounded=1;" parent="1" vertex="1">
          <mxGeometry x="273" y="818" width="80" height="80" as="geometry" />
        </mxCell>
        <mxCell id="g3FacJts447bwH2BUUsu-100" value="&lt;font style=&quot;font-size: 16px&quot;&gt;2&lt;/font&gt;" style="ellipse;whiteSpace=wrap;html=1;aspect=fixed;fillColor=#bac8d3;strokeColor=#23445d;rounded=1;" parent="1" vertex="1">
          <mxGeometry x="513" y="818" width="80" height="80" as="geometry" />
        </mxCell>
        <mxCell id="g3FacJts447bwH2BUUsu-101" value="&lt;font style=&quot;font-size: 16px&quot;&gt;2&lt;/font&gt;" style="ellipse;whiteSpace=wrap;html=1;aspect=fixed;fillColor=#fad7ac;strokeColor=#b46504;rounded=1;" parent="1" vertex="1">
          <mxGeometry x="393" y="818" width="80" height="80" as="geometry" />
        </mxCell>
        <mxCell id="g3FacJts447bwH2BUUsu-108" value="" style="shape=process;whiteSpace=wrap;html=1;backgroundOutline=1;rounded=1;fillColor=#CCCCCC;" parent="1" vertex="1">
          <mxGeometry x="74" y="939" width="600" height="230" as="geometry" />
        </mxCell>
        <mxCell id="g3FacJts447bwH2BUUsu-109" value="" style="ellipse;whiteSpace=wrap;html=1;aspect=fixed;fillColor=#b0e3e6;strokeColor=#0e8088;rounded=1;" parent="1" vertex="1">
          <mxGeometry x="154" y="1014" width="80" height="80" as="geometry" />
        </mxCell>
        <mxCell id="g3FacJts447bwH2BUUsu-110" value="" style="ellipse;whiteSpace=wrap;html=1;aspect=fixed;fillColor=#d0cee2;strokeColor=#56517e;rounded=1;" parent="1" vertex="1">
          <mxGeometry x="274" y="1014" width="80" height="80" as="geometry" />
        </mxCell>
        <mxCell id="g3FacJts447bwH2BUUsu-111" value="" style="ellipse;whiteSpace=wrap;html=1;aspect=fixed;fillColor=#bac8d3;strokeColor=#23445d;rounded=1;" parent="1" vertex="1">
          <mxGeometry x="514" y="1014" width="80" height="80" as="geometry" />
        </mxCell>
        <mxCell id="g3FacJts447bwH2BUUsu-112" value="&lt;i&gt;exactly&lt;/i&gt;&lt;br&gt;1 PWR" style="ellipse;whiteSpace=wrap;html=1;aspect=fixed;fillColor=#fad7ac;strokeColor=#b46504;rounded=1;" parent="1" vertex="1">
          <mxGeometry x="394" y="1014" width="80" height="80" as="geometry" />
        </mxCell>
        <mxCell id="g3FacJts447bwH2BUUsu-116" value="&lt;i&gt;at least&lt;/i&gt;&lt;br&gt;3 PWR" style="text;html=1;strokeColor=none;fillColor=none;align=center;verticalAlign=middle;whiteSpace=wrap;rounded=1;" parent="1" vertex="1">
          <mxGeometry x="524" y="1039" width="60" height="30" as="geometry" />
        </mxCell>
        <mxCell id="g3FacJts447bwH2BUUsu-119" value="&lt;i style=&quot;font-size: 14px&quot;&gt;SACRIFICE &lt;b&gt;ONE&lt;/b&gt; CREATURE TO ADVANCE HERE&lt;/i&gt;" style="text;html=1;strokeColor=none;fillColor=none;align=center;verticalAlign=middle;whiteSpace=wrap;rounded=1;" parent="1" vertex="1">
          <mxGeometry x="134" y="269" width="480" height="30" as="geometry" />
        </mxCell>
        <mxCell id="g3FacJts447bwH2BUUsu-121" value="" style="shape=or;whiteSpace=wrap;html=1;align=center;fillColor=#d0cee2;strokeColor=#56517e;rounded=1;" parent="1" vertex="1">
          <mxGeometry x="249" y="1250" width="40" height="80" as="geometry" />
        </mxCell>
        <mxCell id="g3FacJts447bwH2BUUsu-122" value="" style="shape=or;whiteSpace=wrap;html=1;align=center;rotation=-180;fillColor=#b0e3e6;strokeColor=#0e8088;rounded=1;" parent="1" vertex="1">
          <mxGeometry x="209" y="1250" width="40" height="80" as="geometry" />
        </mxCell>
        <mxCell id="g3FacJts447bwH2BUUsu-123" value="" style="shape=or;whiteSpace=wrap;html=1;align=center;fillColor=#bac8d3;strokeColor=#23445d;rounded=1;" parent="1" vertex="1">
          <mxGeometry x="499" y="1250" width="40" height="80" as="geometry" />
        </mxCell>
        <mxCell id="g3FacJts447bwH2BUUsu-124" value="" style="shape=or;whiteSpace=wrap;html=1;align=center;rotation=-180;fillColor=#fad7ac;strokeColor=#b46504;rounded=1;" parent="1" vertex="1">
          <mxGeometry x="459" y="1250" width="40" height="80" as="geometry" />
        </mxCell>
        <mxCell id="xXZptcnk_brkqJqVmBfV-1" value="&lt;font style=&quot;font-size: 14px&quot;&gt;1&lt;/font&gt;" style="ellipse;whiteSpace=wrap;html=1;aspect=fixed;fontSize=16;" parent="1" vertex="1">
          <mxGeometry x="173" y="778" width="40" height="40" as="geometry" />
        </mxCell>
        <mxCell id="xXZptcnk_brkqJqVmBfV-11" value="&lt;font style=&quot;font-size: 14px&quot;&gt;1&lt;/font&gt;" style="ellipse;whiteSpace=wrap;html=1;aspect=fixed;fontSize=16;" parent="1" vertex="1">
          <mxGeometry x="292" y="778" width="40" height="40" as="geometry" />
        </mxCell>
        <mxCell id="xXZptcnk_brkqJqVmBfV-13" value="&lt;font style=&quot;font-size: 14px&quot;&gt;1&lt;/font&gt;" style="ellipse;whiteSpace=wrap;html=1;aspect=fixed;fontSize=16;" parent="1" vertex="1">
          <mxGeometry x="412" y="778" width="40" height="40" as="geometry" />
        </mxCell>
        <mxCell id="xXZptcnk_brkqJqVmBfV-15" value="&lt;font style=&quot;font-size: 14px&quot;&gt;1&lt;/font&gt;" style="ellipse;whiteSpace=wrap;html=1;aspect=fixed;fontSize=16;" parent="1" vertex="1">
          <mxGeometry x="533" y="778" width="40" height="40" as="geometry" />
        </mxCell>
        <mxCell id="xXZptcnk_brkqJqVmBfV-31" value="1 PWR&lt;br&gt;&lt;i&gt;or&lt;/i&gt;&lt;br&gt;3 PWR" style="text;html=1;strokeColor=none;fillColor=none;align=center;verticalAlign=middle;whiteSpace=wrap;rounded=1;" parent="1" vertex="1">
          <mxGeometry x="524" y="584" width="60" height="30" as="geometry" />
        </mxCell>
        <mxCell id="xXZptcnk_brkqJqVmBfV-32" value="&amp;nbsp;Pawns that reach this field subsequently start here" style="text;html=1;strokeColor=none;fillColor=none;align=left;verticalAlign=middle;whiteSpace=wrap;rounded=0;fontSize=12;" parent="1" vertex="1">
          <mxGeometry x="134" y="1119" width="480" height="30" as="geometry" />
        </mxCell>
        <mxCell id="xXZptcnk_brkqJqVmBfV-33" value="&lt;i style=&quot;font-size: 14px&quot;&gt;SACRIFICE &lt;b&gt;TWO &lt;/b&gt;CREATURES &lt;b&gt;OF A KIND&lt;/b&gt; OR A &lt;b&gt;MATCHED&amp;nbsp;PAIR&lt;br&gt;&lt;/b&gt;TO ADVANCE&amp;nbsp;&lt;b&gt;ONE CORRESPONDING PAWN&lt;/b&gt; HERE&lt;br&gt;&lt;/i&gt;" style="text;html=1;strokeColor=none;fillColor=none;align=center;verticalAlign=middle;whiteSpace=wrap;rounded=1;" parent="1" vertex="1">
          <mxGeometry x="134" y="1190" width="480" height="50" as="geometry" />
        </mxCell>
        <mxCell id="xXZptcnk_brkqJqVmBfV-34" value="&lt;i&gt;at least&lt;/i&gt;&lt;br&gt;2 PWR" style="text;html=1;strokeColor=none;fillColor=none;align=center;verticalAlign=middle;whiteSpace=wrap;rounded=1;" parent="1" vertex="1">
          <mxGeometry x="164" y="1039" width="60" height="30" as="geometry" />
        </mxCell>
        <mxCell id="xXZptcnk_brkqJqVmBfV-35" value="&lt;i style=&quot;font-size: 14px&quot;&gt;SACRIFICE &lt;b&gt;ONE&lt;/b&gt; CREATURE TO ADVANCE HERE&lt;/i&gt;" style="text;html=1;strokeColor=none;fillColor=none;align=center;verticalAlign=middle;whiteSpace=wrap;rounded=1;" parent="1" vertex="1">
          <mxGeometry x="133.5" y="946" width="480" height="30" as="geometry" />
        </mxCell>
        <mxCell id="xXZptcnk_brkqJqVmBfV-36" value="&lt;i&gt;exactly&lt;/i&gt;&lt;br&gt;2 PWR" style="text;html=1;strokeColor=none;fillColor=none;align=center;verticalAlign=middle;whiteSpace=wrap;rounded=1;" parent="1" vertex="1">
          <mxGeometry x="284" y="1039" width="60" height="30" as="geometry" />
        </mxCell>
        <mxCell id="xXZptcnk_brkqJqVmBfV-40" value="&lt;font style=&quot;font-size: 16px&quot;&gt;WITCHER:&lt;br&gt;TEMPORARY BOON&lt;/font&gt;" style="text;html=1;strokeColor=none;fillColor=none;align=center;verticalAlign=middle;whiteSpace=wrap;horizontal=0;fontStyle=1;rounded=0;fontColor=#FFFFFF;" parent="1" vertex="1">
          <mxGeometry x="614" y="939" width="60" height="230" as="geometry" />
        </mxCell>
        <mxCell id="xXZptcnk_brkqJqVmBfV-41" value="While a Pawn is present here, the Witcher has access to Rare Treasures&amp;nbsp;" style="text;html=1;strokeColor=none;fillColor=none;align=right;verticalAlign=middle;whiteSpace=wrap;rounded=0;fontSize=12;fontColor=#FFFFFF;" parent="1" vertex="1">
          <mxGeometry x="134" y="1139" width="480" height="30" as="geometry" />
        </mxCell>
        <mxCell id="xXZptcnk_brkqJqVmBfV-42" value="&lt;span style=&quot;font-size: 36px&quot;&gt;0&lt;/span&gt;" style="text;html=1;strokeColor=none;fillColor=none;align=center;verticalAlign=middle;whiteSpace=wrap;rounded=0;fontSize=12;" parent="1" vertex="1">
          <mxGeometry x="703" y="118" width="60" height="30" as="geometry" />
        </mxCell>
        <mxCell id="xXZptcnk_brkqJqVmBfV-43" value="&lt;span style=&quot;font-size: 36px&quot;&gt;1&lt;/span&gt;" style="text;html=1;strokeColor=none;fillColor=none;align=center;verticalAlign=middle;whiteSpace=wrap;rounded=0;fontSize=12;" parent="1" vertex="1">
          <mxGeometry x="703" y="349" width="60" height="30" as="geometry" />
        </mxCell>
        <mxCell id="xXZptcnk_brkqJqVmBfV-44" value="&lt;span style=&quot;font-size: 36px&quot;&gt;2&lt;/span&gt;" style="text;html=1;strokeColor=none;fillColor=none;align=center;verticalAlign=middle;whiteSpace=wrap;rounded=0;fontSize=12;" parent="1" vertex="1">
          <mxGeometry x="703" y="584" width="60" height="30" as="geometry" />
        </mxCell>
        <mxCell id="xXZptcnk_brkqJqVmBfV-45" value="&lt;span style=&quot;font-size: 36px&quot;&gt;3&lt;/span&gt;" style="text;html=1;strokeColor=none;fillColor=none;align=center;verticalAlign=middle;whiteSpace=wrap;rounded=0;fontSize=12;" parent="1" vertex="1">
          <mxGeometry x="703" y="809" width="60" height="30" as="geometry" />
        </mxCell>
        <mxCell id="xXZptcnk_brkqJqVmBfV-46" value="&lt;span style=&quot;font-size: 36px&quot;&gt;4&lt;/span&gt;" style="text;html=1;strokeColor=none;fillColor=none;align=center;verticalAlign=middle;whiteSpace=wrap;rounded=0;fontSize=12;" parent="1" vertex="1">
          <mxGeometry x="703" y="1039" width="60" height="30" as="geometry" />
        </mxCell>
        <mxCell id="xXZptcnk_brkqJqVmBfV-47" value="&lt;span style=&quot;font-size: 36px&quot;&gt;5&lt;/span&gt;" style="text;html=1;strokeColor=none;fillColor=none;align=center;verticalAlign=middle;whiteSpace=wrap;rounded=0;fontSize=12;" parent="1" vertex="1">
          <mxGeometry x="703" y="1275" width="60" height="30" as="geometry" />
        </mxCell>
        <mxCell id="xXZptcnk_brkqJqVmBfV-49" value="" style="shape=process;whiteSpace=wrap;html=1;backgroundOutline=1;rounded=1;fillColor=#969696;" parent="1" vertex="1">
          <mxGeometry x="74" y="1401" width="600" height="230" as="geometry" />
        </mxCell>
        <mxCell id="xXZptcnk_brkqJqVmBfV-56" value="&lt;i style=&quot;font-size: 14px&quot;&gt;SACRIFICE &lt;b&gt;AT LEAST TWO&lt;/b&gt; CREATURES &lt;b&gt;OF A KIND&lt;/b&gt;&lt;br&gt;&lt;b&gt;DURING A HUNT&lt;/b&gt; TO ADVANCE THEIR PAWN HERE&lt;/i&gt;" style="text;html=1;strokeColor=none;fillColor=none;align=center;verticalAlign=middle;whiteSpace=wrap;rounded=1;" parent="1" vertex="1">
          <mxGeometry x="134" y="1421" width="480" height="30" as="geometry" />
        </mxCell>
        <mxCell id="xXZptcnk_brkqJqVmBfV-60" value="&lt;span style=&quot;font-size: 36px&quot;&gt;6&lt;/span&gt;" style="text;html=1;strokeColor=none;fillColor=none;align=center;verticalAlign=middle;whiteSpace=wrap;rounded=0;fontSize=12;" parent="1" vertex="1">
          <mxGeometry x="703" y="1501" width="60" height="30" as="geometry" />
        </mxCell>
        <mxCell id="xXZptcnk_brkqJqVmBfV-62" value="&amp;nbsp;Only one Pawn may occupy each field at any time" style="text;html=1;strokeColor=none;fillColor=none;align=left;verticalAlign=middle;whiteSpace=wrap;rounded=0;fontSize=12;" parent="1" vertex="1">
          <mxGeometry x="134" y="1370" width="480" height="30" as="geometry" />
        </mxCell>
        <mxCell id="xXZptcnk_brkqJqVmBfV-75" value="" style="shape=process;whiteSpace=wrap;html=1;backgroundOutline=1;rounded=1;fillColor=#969696;gradientColor=#cccccc;" parent="1" vertex="1">
          <mxGeometry x="74" y="1631" width="600" height="230" as="geometry" />
        </mxCell>
        <mxCell id="xXZptcnk_brkqJqVmBfV-84" value="&lt;font style=&quot;font-size: 16px&quot;&gt;WITCHER:&lt;br&gt;PERMANENT BOON&lt;/font&gt;" style="text;html=1;strokeColor=none;fillColor=none;align=center;verticalAlign=middle;whiteSpace=wrap;horizontal=0;fontStyle=1;rounded=0;fontColor=#FFFFFF;" parent="1" vertex="1">
          <mxGeometry x="614" y="1631" width="60" height="230" as="geometry" />
        </mxCell>
        <mxCell id="xXZptcnk_brkqJqVmBfV-85" value="Once a Pawn reaches this position, the Witcher gains access to Rare Treasures&amp;nbsp;" style="text;html=1;strokeColor=none;fillColor=none;align=right;verticalAlign=middle;whiteSpace=wrap;rounded=0;fontSize=12;fontColor=#FFFFFF;" parent="1" vertex="1">
          <mxGeometry x="134" y="1831" width="480" height="30" as="geometry" />
        </mxCell>
        <mxCell id="xXZptcnk_brkqJqVmBfV-86" value="&lt;span style=&quot;font-size: 36px&quot;&gt;7&lt;/span&gt;" style="text;html=1;strokeColor=none;fillColor=none;align=center;verticalAlign=middle;whiteSpace=wrap;rounded=0;fontSize=12;" parent="1" vertex="1">
          <mxGeometry x="703" y="1731" width="60" height="30" as="geometry" />
        </mxCell>
        <mxCell id="xXZptcnk_brkqJqVmBfV-88" value="" style="shape=process;whiteSpace=wrap;html=1;backgroundOutline=1;rounded=1;fillColor=#cccccc;" parent="1" vertex="1">
          <mxGeometry x="74" y="1861" width="600" height="230" as="geometry" />
        </mxCell>
        <mxCell id="xXZptcnk_brkqJqVmBfV-95" value="&lt;span style=&quot;font-size: 14px&quot;&gt;&lt;i&gt;SACRIFICE &lt;b&gt;A PAIR&lt;/b&gt;&amp;nbsp;OF&amp;nbsp;CREATURES &lt;b&gt;DURING A HUNT&lt;/b&gt;&lt;br&gt;TO ADVANCE &lt;b&gt;ONE PAWN&lt;/b&gt; HERE&lt;/i&gt;&lt;/span&gt;" style="text;html=1;strokeColor=none;fillColor=none;align=center;verticalAlign=middle;whiteSpace=wrap;rounded=1;" parent="1" vertex="1">
          <mxGeometry x="134" y="1886" width="480" height="30" as="geometry" />
        </mxCell>
        <mxCell id="xXZptcnk_brkqJqVmBfV-99" value="&lt;span style=&quot;font-size: 36px&quot;&gt;8&lt;/span&gt;" style="text;html=1;strokeColor=none;fillColor=none;align=center;verticalAlign=middle;whiteSpace=wrap;rounded=0;fontSize=12;" parent="1" vertex="1">
          <mxGeometry x="703" y="1961" width="60" height="30" as="geometry" />
        </mxCell>
        <mxCell id="xXZptcnk_brkqJqVmBfV-101" value="" style="shape=process;whiteSpace=wrap;html=1;backgroundOutline=1;rounded=1;fillColor=#cccccc;gradientColor=#666666;" parent="1" vertex="1">
          <mxGeometry x="74" y="2091" width="600" height="230" as="geometry" />
        </mxCell>
        <mxCell id="xXZptcnk_brkqJqVmBfV-102" value="" style="ellipse;whiteSpace=wrap;html=1;aspect=fixed;fillColor=#b0e3e6;strokeColor=#0e8088;rounded=1;" parent="1" vertex="1">
          <mxGeometry x="154" y="2186" width="80" height="80" as="geometry" />
        </mxCell>
        <mxCell id="xXZptcnk_brkqJqVmBfV-113" value="&lt;span style=&quot;font-size: 36px&quot;&gt;9&lt;/span&gt;" style="text;html=1;strokeColor=none;fillColor=none;align=center;verticalAlign=middle;whiteSpace=wrap;rounded=0;fontSize=12;" parent="1" vertex="1">
          <mxGeometry x="703" y="2186" width="60" height="30" as="geometry" />
        </mxCell>
        <mxCell id="xXZptcnk_brkqJqVmBfV-118" value="&lt;font color=&quot;#99004d&quot;&gt;+3&lt;/font&gt;" style="ellipse;whiteSpace=wrap;html=1;aspect=fixed;labelBackgroundColor=none;labelBorderColor=none;fontSize=36;fontColor=#E6E6E6;fillColor=#969696;gradientColor=none;verticalAlign=middle;horizontal=0;" parent="1" vertex="1">
          <mxGeometry x="64" y="1631" width="80" height="80" as="geometry" />
        </mxCell>
        <mxCell id="xXZptcnk_brkqJqVmBfV-120" value="&lt;font color=&quot;#99004d&quot;&gt;+2&lt;/font&gt;" style="ellipse;whiteSpace=wrap;html=1;aspect=fixed;labelBackgroundColor=none;labelBorderColor=none;fontSize=36;fontColor=#E6E6E6;fillColor=#cccccc;gradientColor=none;verticalAlign=middle;horizontal=0;" parent="1" vertex="1">
          <mxGeometry x="64" y="1171" width="80" height="80" as="geometry" />
        </mxCell>
        <mxCell id="xXZptcnk_brkqJqVmBfV-121" value="&lt;font style=&quot;font-size: 16px&quot;&gt;THREAT GROWS&lt;br&gt;&lt;/font&gt;" style="text;html=1;strokeColor=none;fillColor=none;align=center;verticalAlign=middle;whiteSpace=wrap;horizontal=0;fontStyle=1;rounded=0;fontColor=#99004D;" parent="1" vertex="1">
          <mxGeometry x="74" y="779" width="60" height="160" as="geometry" />
        </mxCell>
        <mxCell id="xXZptcnk_brkqJqVmBfV-122" value="&lt;font color=&quot;#99004d&quot;&gt;+1&lt;/font&gt;" style="ellipse;whiteSpace=wrap;html=1;aspect=fixed;labelBackgroundColor=none;labelBorderColor=none;fontSize=36;fontColor=#000000;fillColor=#e8e8e8;gradientColor=none;verticalAlign=middle;horizontal=0;" parent="1" vertex="1">
          <mxGeometry x="63" y="709" width="80" height="80" as="geometry" />
        </mxCell>
        <mxCell id="xXZptcnk_brkqJqVmBfV-126" value="&lt;font style=&quot;font-size: 16px&quot;&gt;THREAT DROPS&lt;br&gt;&lt;/font&gt;" style="text;html=1;strokeColor=none;fillColor=none;align=center;verticalAlign=middle;whiteSpace=wrap;horizontal=0;fontStyle=1;rounded=0;fontColor=#99004D;labelBorderColor=#99004D;" parent="1" vertex="1">
          <mxGeometry x="614" y="1931" width="60" height="160" as="geometry" />
        </mxCell>
        <mxCell id="xXZptcnk_brkqJqVmBfV-127" value="&lt;font color=&quot;#99004d&quot;&gt;+1&lt;/font&gt;" style="ellipse;whiteSpace=wrap;html=1;aspect=fixed;labelBackgroundColor=none;labelBorderColor=none;fontSize=36;fontColor=#E6E6E6;fillColor=#CCCCCC;gradientColor=none;verticalAlign=middle;horizontal=0;" parent="1" vertex="1">
          <mxGeometry x="603.5" y="1861" width="80" height="80" as="geometry" />
        </mxCell>
        <mxCell id="xXZptcnk_brkqJqVmBfV-129" value="&lt;font color=&quot;#99004d&quot;&gt;+2&lt;/font&gt;" style="ellipse;whiteSpace=wrap;html=1;aspect=fixed;labelBackgroundColor=none;labelBorderColor=none;fontSize=36;fontColor=#E6E6E6;fillColor=#cccccc;gradientColor=none;verticalAlign=middle;horizontal=0;" parent="1" vertex="1">
          <mxGeometry x="64" y="2091" width="80" height="80" as="geometry" />
        </mxCell>
        <mxCell id="xXZptcnk_brkqJqVmBfV-130" value="&lt;font&gt;II&lt;/font&gt;" style="whiteSpace=wrap;html=1;aspect=fixed;labelBackgroundColor=none;labelBorderColor=none;fontSize=36;fontColor=#000000;fillColor=#cccccc;gradientColor=none;verticalAlign=middle;horizontal=0;" parent="1" vertex="1">
          <mxGeometry x="74" y="939" width="60" height="60" as="geometry" />
        </mxCell>
        <mxCell id="xXZptcnk_brkqJqVmBfV-131" value="&lt;span style=&quot;font-size: 16px&quot;&gt;START POSITION&lt;/span&gt;" style="text;html=1;strokeColor=none;fillColor=none;align=center;verticalAlign=middle;whiteSpace=wrap;horizontal=0;fontStyle=1;rounded=0;fontColor=#000000;labelBackgroundColor=none;labelBorderColor=none;" parent="1" vertex="1">
          <mxGeometry x="74" y="79" width="60" height="170" as="geometry" />
        </mxCell>
        <mxCell id="xXZptcnk_brkqJqVmBfV-132" value="&lt;font&gt;I&lt;/font&gt;" style="whiteSpace=wrap;html=1;aspect=fixed;labelBackgroundColor=none;labelBorderColor=none;fontSize=36;fontColor=#000000;fillColor=#FFFFFF;gradientColor=none;verticalAlign=middle;horizontal=0;" parent="1" vertex="1">
          <mxGeometry x="74" y="19" width="60" height="60" as="geometry" />
        </mxCell>
        <mxCell id="xXZptcnk_brkqJqVmBfV-136" value="&lt;font&gt;III&lt;/font&gt;" style="whiteSpace=wrap;html=1;aspect=fixed;labelBackgroundColor=none;labelBorderColor=none;fontSize=36;fontColor=#000000;fillColor=#CCCCCC;gradientColor=none;verticalAlign=middle;horizontal=0;rounded=0;" parent="1" vertex="1">
          <mxGeometry x="74" y="1861" width="60" height="60" as="geometry" />
        </mxCell>
        <mxCell id="xXZptcnk_brkqJqVmBfV-139" value="&lt;h1 style=&quot;font-size: 16px&quot;&gt;&lt;span&gt;MANIFEST NEMESIS&lt;br&gt;&lt;div style=&quot;&quot;&gt;&lt;span style=&quot;font-weight: normal&quot;&gt;immediately when all Pawns reach this position&lt;/span&gt;&lt;/div&gt;&lt;/span&gt;&lt;/h1&gt;" style="text;html=1;strokeColor=none;fillColor=none;spacing=5;spacingTop=-20;whiteSpace=wrap;overflow=hidden;rounded=0;labelBackgroundColor=none;labelBorderColor=none;fontSize=36;fontColor=#99004D;verticalAlign=top;align=left;" parent="1" vertex="1">
          <mxGeometry x="133.5" y="2281" width="480" height="40" as="geometry" />
        </mxCell>
        <mxCell id="xXZptcnk_brkqJqVmBfV-141" value="&lt;i style=&quot;font-size: 14px&quot;&gt;SACRIFICE &lt;b&gt;TWO DIFFERENT&amp;nbsp;&lt;/b&gt;CREATURES &lt;b&gt;IN ONE TURN&lt;br&gt;&lt;/b&gt;TO ADVANCE THE PAWN OF&amp;nbsp;&lt;b&gt;A THIRD&amp;nbsp;&lt;/b&gt;HERE&lt;/i&gt;" style="text;html=1;strokeColor=none;fillColor=none;align=center;verticalAlign=middle;whiteSpace=wrap;rounded=1;" parent="1" vertex="1">
          <mxGeometry x="134" y="2116" width="480" height="30" as="geometry" />
        </mxCell>
        <mxCell id="xXZptcnk_brkqJqVmBfV-146" value="" style="ellipse;whiteSpace=wrap;html=1;aspect=fixed;labelBackgroundColor=none;labelBorderColor=none;fontSize=16;fillColor=#d0cee2;align=center;verticalAlign=middle;strokeColor=#56517e;" parent="1" vertex="1">
          <mxGeometry x="150" y="2164" width="30" height="30" as="geometry" />
        </mxCell>
        <mxCell id="xXZptcnk_brkqJqVmBfV-147" value="" style="ellipse;whiteSpace=wrap;html=1;aspect=fixed;labelBackgroundColor=none;labelBorderColor=none;fontSize=16;fillColor=#fad7ac;align=center;verticalAlign=middle;strokeColor=#b46504;" parent="1" vertex="1">
          <mxGeometry x="179" y="2156" width="30" height="30" as="geometry" />
        </mxCell>
        <mxCell id="xXZptcnk_brkqJqVmBfV-152" value="" style="ellipse;whiteSpace=wrap;html=1;aspect=fixed;fillColor=#d0cee2;strokeColor=#56517e;rounded=1;" parent="1" vertex="1">
          <mxGeometry x="273" y="2186" width="80" height="80" as="geometry" />
        </mxCell>
        <mxCell id="xXZptcnk_brkqJqVmBfV-155" value="" style="ellipse;whiteSpace=wrap;html=1;aspect=fixed;labelBackgroundColor=none;labelBorderColor=none;fontSize=16;fillColor=#bac8d3;align=center;verticalAlign=middle;strokeColor=#23445d;" parent="1" vertex="1">
          <mxGeometry x="298" y="2156" width="30" height="30" as="geometry" />
        </mxCell>
        <mxCell id="xXZptcnk_brkqJqVmBfV-156" value="" style="ellipse;whiteSpace=wrap;html=1;aspect=fixed;fillColor=#fad7ac;strokeColor=#b46504;rounded=1;" parent="1" vertex="1">
          <mxGeometry x="394" y="2186" width="80" height="80" as="geometry" />
        </mxCell>
        <mxCell id="xXZptcnk_brkqJqVmBfV-158" value="" style="ellipse;whiteSpace=wrap;html=1;aspect=fixed;labelBackgroundColor=none;labelBorderColor=none;fontSize=16;fillColor=#b0e3e6;align=center;verticalAlign=middle;strokeColor=#0e8088;" parent="1" vertex="1">
          <mxGeometry x="390" y="2164" width="30" height="30" as="geometry" />
        </mxCell>
        <mxCell id="xXZptcnk_brkqJqVmBfV-160" value="" style="ellipse;whiteSpace=wrap;html=1;aspect=fixed;fillColor=#bac8d3;strokeColor=#23445d;rounded=1;" parent="1" vertex="1">
          <mxGeometry x="514" y="2186" width="80" height="80" as="geometry" />
        </mxCell>
        <mxCell id="xXZptcnk_brkqJqVmBfV-162" value="" style="ellipse;whiteSpace=wrap;html=1;aspect=fixed;labelBackgroundColor=none;labelBorderColor=none;fontSize=16;fillColor=#b0e3e6;align=center;verticalAlign=middle;strokeColor=#0e8088;" parent="1" vertex="1">
          <mxGeometry x="510" y="2164" width="30" height="30" as="geometry" />
        </mxCell>
        <mxCell id="xXZptcnk_brkqJqVmBfV-163" value="" style="ellipse;whiteSpace=wrap;html=1;aspect=fixed;labelBackgroundColor=none;labelBorderColor=none;fontSize=16;fillColor=#fad7ac;align=center;verticalAlign=middle;strokeColor=#b46504;" parent="1" vertex="1">
          <mxGeometry x="539" y="2156" width="30" height="30" as="geometry" />
        </mxCell>
        <mxCell id="xXZptcnk_brkqJqVmBfV-168" value="" style="ellipse;whiteSpace=wrap;html=1;aspect=fixed;fontSize=16;fillColor=#b0e3e6;strokeColor=#0e8088;" parent="1" vertex="1">
          <mxGeometry x="169" y="1270" width="40" height="40" as="geometry" />
        </mxCell>
        <mxCell id="xXZptcnk_brkqJqVmBfV-169" value="" style="ellipse;whiteSpace=wrap;html=1;aspect=fixed;fontSize=16;fillColor=#d0cee2;strokeColor=#56517e;" parent="1" vertex="1">
          <mxGeometry x="289" y="1270" width="40" height="40" as="geometry" />
        </mxCell>
        <mxCell id="xXZptcnk_brkqJqVmBfV-170" value="" style="ellipse;whiteSpace=wrap;html=1;aspect=fixed;fontSize=16;fillColor=#fad7ac;strokeColor=#b46504;" parent="1" vertex="1">
          <mxGeometry x="419" y="1270" width="40" height="40" as="geometry" />
        </mxCell>
        <mxCell id="xXZptcnk_brkqJqVmBfV-171" value="" style="ellipse;whiteSpace=wrap;html=1;aspect=fixed;fontSize=16;fillColor=#bac8d3;strokeColor=#23445d;" parent="1" vertex="1">
          <mxGeometry x="540" y="1270" width="40" height="40" as="geometry" />
        </mxCell>
        <mxCell id="xXZptcnk_brkqJqVmBfV-172" value="&lt;span style=&quot;font-size: 16px&quot;&gt;START POSITION&lt;/span&gt;" style="text;html=1;strokeColor=none;fillColor=none;align=center;verticalAlign=middle;whiteSpace=wrap;horizontal=0;fontStyle=1;rounded=0;fontColor=#000000;labelBackgroundColor=none;labelBorderColor=none;" parent="1" vertex="1">
          <mxGeometry x="74" y="999" width="60" height="170" as="geometry" />
        </mxCell>
        <mxCell id="xXZptcnk_brkqJqVmBfV-173" value="&lt;span style=&quot;font-size: 16px&quot;&gt;START POSITION&lt;/span&gt;" style="text;html=1;strokeColor=none;fillColor=none;align=center;verticalAlign=middle;whiteSpace=wrap;horizontal=0;fontStyle=1;rounded=0;fontColor=#000000;labelBackgroundColor=none;labelBorderColor=none;" parent="1" vertex="1">
          <mxGeometry x="74" y="1921" width="60" height="170" as="geometry" />
        </mxCell>
        <mxCell id="xXZptcnk_brkqJqVmBfV-174" value="&lt;i style=&quot;font-size: 14px&quot;&gt;SACRIFICE &lt;b&gt;ONE&lt;/b&gt; CREATURE TO ADVANCE HERE&lt;/i&gt;" style="text;html=1;strokeColor=none;fillColor=none;align=center;verticalAlign=middle;whiteSpace=wrap;rounded=1;" parent="1" vertex="1">
          <mxGeometry x="134" y="499" width="480" height="30" as="geometry" />
        </mxCell>
        <mxCell id="xXZptcnk_brkqJqVmBfV-175" value="&lt;i style=&quot;font-size: 14px&quot;&gt;SACRIFICE &lt;b&gt;THREE&amp;nbsp;&lt;/b&gt;CREATURES &lt;b&gt;OF A KIND&lt;br&gt;CONSECUTIVELY&lt;/b&gt; TO ADVANCE THEIR PAWN HERE&lt;/i&gt;" style="text;html=1;strokeColor=none;fillColor=none;align=center;verticalAlign=middle;whiteSpace=wrap;rounded=1;" parent="1" vertex="1">
          <mxGeometry x="134" y="1650" width="480" height="30" as="geometry" />
        </mxCell>
        <mxCell id="xXZptcnk_brkqJqVmBfV-176" value="" style="shape=or;whiteSpace=wrap;html=1;align=center;fillColor=#d0cee2;strokeColor=#56517e;rounded=1;" parent="1" vertex="1">
          <mxGeometry x="249" y="1941" width="40" height="80" as="geometry" />
        </mxCell>
        <mxCell id="xXZptcnk_brkqJqVmBfV-177" value="" style="shape=or;align=center;rotation=180;fillColor=#b0e3e6;strokeColor=#0e8088;rounded=1;horizontal=0;html=1;whiteSpace=wrap;" parent="1" vertex="1">
          <mxGeometry x="209" y="1941" width="40" height="80" as="geometry" />
        </mxCell>
        <mxCell id="xXZptcnk_brkqJqVmBfV-178" value="" style="shape=or;whiteSpace=wrap;html=1;align=center;fillColor=#bac8d3;strokeColor=#23445d;rounded=1;" parent="1" vertex="1">
          <mxGeometry x="499" y="1941" width="40" height="80" as="geometry" />
        </mxCell>
        <mxCell id="xXZptcnk_brkqJqVmBfV-179" value="" style="shape=or;whiteSpace=wrap;html=1;align=center;rotation=-180;fillColor=#fad7ac;strokeColor=#b46504;rounded=1;" parent="1" vertex="1">
          <mxGeometry x="459" y="1941" width="40" height="80" as="geometry" />
        </mxCell>
        <mxCell id="xXZptcnk_brkqJqVmBfV-180" value="&amp;nbsp;Only one Pawn may occupy each field at any time" style="text;html=1;strokeColor=none;fillColor=none;align=left;verticalAlign=middle;whiteSpace=wrap;rounded=0;fontSize=12;" parent="1" vertex="1">
          <mxGeometry x="134" y="2041" width="480" height="30" as="geometry" />
        </mxCell>
        <mxCell id="xXZptcnk_brkqJqVmBfV-181" value="&amp;nbsp;Pawns that reach this field subsequently start here" style="text;html=1;strokeColor=none;fillColor=none;align=left;verticalAlign=middle;whiteSpace=wrap;rounded=0;fontSize=12;" parent="1" vertex="1">
          <mxGeometry x="134" y="2061" width="480" height="30" as="geometry" />
        </mxCell>
        <mxCell id="xXZptcnk_brkqJqVmBfV-185" value="&lt;font style=&quot;font-size: 16px&quot;&gt;2&lt;/font&gt;" style="ellipse;whiteSpace=wrap;html=1;aspect=fixed;fillColor=#b0e3e6;strokeColor=#0e8088;rounded=1;" parent="1" vertex="1">
          <mxGeometry x="154" y="1511" width="80" height="80" as="geometry" />
        </mxCell>
        <mxCell id="xXZptcnk_brkqJqVmBfV-186" value="&lt;font style=&quot;font-size: 16px&quot;&gt;2&lt;/font&gt;" style="ellipse;whiteSpace=wrap;html=1;aspect=fixed;fillColor=#d0cee2;strokeColor=#56517e;rounded=1;" parent="1" vertex="1">
          <mxGeometry x="274" y="1511" width="80" height="80" as="geometry" />
        </mxCell>
        <mxCell id="xXZptcnk_brkqJqVmBfV-187" value="&lt;font style=&quot;font-size: 16px&quot;&gt;2&lt;/font&gt;" style="ellipse;whiteSpace=wrap;html=1;aspect=fixed;fillColor=#bac8d3;strokeColor=#23445d;rounded=1;" parent="1" vertex="1">
          <mxGeometry x="514" y="1511" width="80" height="80" as="geometry" />
        </mxCell>
        <mxCell id="xXZptcnk_brkqJqVmBfV-188" value="&lt;font style=&quot;font-size: 16px&quot;&gt;2&lt;/font&gt;" style="ellipse;whiteSpace=wrap;html=1;aspect=fixed;fillColor=#fad7ac;strokeColor=#b46504;rounded=1;" parent="1" vertex="1">
          <mxGeometry x="394" y="1511" width="80" height="80" as="geometry" />
        </mxCell>
        <mxCell id="xXZptcnk_brkqJqVmBfV-189" value="&lt;font style=&quot;font-size: 14px&quot;&gt;1&lt;/font&gt;" style="ellipse;whiteSpace=wrap;html=1;aspect=fixed;fontSize=16;fillColor=#b0e3e6;strokeColor=#0e8088;" parent="1" vertex="1">
          <mxGeometry x="174" y="1471" width="40" height="40" as="geometry" />
        </mxCell>
        <mxCell id="xXZptcnk_brkqJqVmBfV-190" value="&lt;font style=&quot;font-size: 14px&quot;&gt;1&lt;/font&gt;" style="ellipse;whiteSpace=wrap;html=1;aspect=fixed;fontSize=16;fillColor=#d0cee2;strokeColor=#56517e;" parent="1" vertex="1">
          <mxGeometry x="293" y="1471" width="40" height="40" as="geometry" />
        </mxCell>
        <mxCell id="xXZptcnk_brkqJqVmBfV-191" value="&lt;font style=&quot;font-size: 14px&quot;&gt;1&lt;/font&gt;" style="ellipse;whiteSpace=wrap;html=1;aspect=fixed;fontSize=16;fillColor=#fad7ac;strokeColor=#b46504;" parent="1" vertex="1">
          <mxGeometry x="413" y="1471" width="40" height="40" as="geometry" />
        </mxCell>
        <mxCell id="xXZptcnk_brkqJqVmBfV-192" value="&lt;font style=&quot;font-size: 14px&quot;&gt;1&lt;/font&gt;" style="ellipse;whiteSpace=wrap;html=1;aspect=fixed;fontSize=16;fillColor=#bac8d3;strokeColor=#23445d;" parent="1" vertex="1">
          <mxGeometry x="534" y="1471" width="40" height="40" as="geometry" />
        </mxCell>
        <mxCell id="xXZptcnk_brkqJqVmBfV-198" value="&lt;i&gt;at least&lt;/i&gt;&lt;br&gt;5 PWR&lt;br&gt;&lt;i&gt;total&lt;/i&gt;" style="text;html=1;strokeColor=none;fillColor=none;align=center;verticalAlign=middle;whiteSpace=wrap;rounded=1;" parent="1" vertex="1">
          <mxGeometry x="204" y="1941" width="90" height="80" as="geometry" />
        </mxCell>
        <mxCell id="xXZptcnk_brkqJqVmBfV-201" value="&lt;i&gt;exactly&lt;/i&gt;&lt;br&gt;6 PWR&lt;br&gt;&lt;i&gt;total&lt;/i&gt;" style="text;html=1;strokeColor=none;fillColor=none;align=center;verticalAlign=middle;whiteSpace=wrap;rounded=1;" parent="1" vertex="1">
          <mxGeometry x="454" y="1941" width="90" height="80" as="geometry" />
        </mxCell>
        <mxCell id="KG3A8D6R6zFbuDHCj5au-1" value="&lt;font style=&quot;font-size: 16px&quot;&gt;THREAT GROWS&lt;br&gt;&lt;/font&gt;" style="text;html=1;strokeColor=none;fillColor=none;align=center;verticalAlign=middle;whiteSpace=wrap;horizontal=0;fontStyle=1;rounded=0;fontColor=#99004D;" parent="1" vertex="1">
          <mxGeometry x="74" y="1241" width="60" height="160" as="geometry" />
        </mxCell>
        <mxCell id="KG3A8D6R6zFbuDHCj5au-2" value="&lt;font style=&quot;font-size: 16px&quot;&gt;THREAT GROWS&lt;br&gt;&lt;/font&gt;" style="text;html=1;strokeColor=none;fillColor=none;align=center;verticalAlign=middle;whiteSpace=wrap;horizontal=0;fontStyle=1;rounded=0;fontColor=#99004D;" parent="1" vertex="1">
          <mxGeometry x="74" y="1701" width="60" height="160" as="geometry" />
        </mxCell>
        <mxCell id="KG3A8D6R6zFbuDHCj5au-3" value="&lt;font style=&quot;font-size: 16px&quot;&gt;THREAT GROWS&lt;br&gt;&lt;/font&gt;" style="text;html=1;strokeColor=none;fillColor=none;align=center;verticalAlign=middle;whiteSpace=wrap;horizontal=0;fontStyle=1;rounded=0;fontColor=#99004D;" parent="1" vertex="1">
          <mxGeometry x="74" y="2161" width="60" height="160" as="geometry" />
        </mxCell>
        <mxCell id="KG3A8D6R6zFbuDHCj5au-18" value="&lt;font style=&quot;font-size: 16px&quot;&gt;3&lt;/font&gt;" style="ellipse;whiteSpace=wrap;html=1;aspect=fixed;fillColor=#b0e3e6;strokeColor=#0e8088;rounded=1;" parent="1" vertex="1">
          <mxGeometry x="153" y="1729" width="80" height="80" as="geometry" />
        </mxCell>
        <mxCell id="KG3A8D6R6zFbuDHCj5au-19" value="&lt;font style=&quot;font-size: 12px&quot;&gt;2&lt;/font&gt;" style="ellipse;whiteSpace=wrap;html=1;aspect=fixed;labelBackgroundColor=none;labelBorderColor=none;fontSize=16;fillColor=#b0e3e6;align=center;verticalAlign=middle;strokeColor=#0e8088;" parent="1" vertex="1">
          <mxGeometry x="193.5" y="1702" width="30" height="30" as="geometry" />
        </mxCell>
        <mxCell id="KG3A8D6R6zFbuDHCj5au-20" value="&lt;font style=&quot;font-size: 12px&quot;&gt;1&lt;/font&gt;" style="ellipse;whiteSpace=wrap;html=1;aspect=fixed;labelBackgroundColor=none;labelBorderColor=none;fontSize=16;fillColor=#b0e3e6;align=center;verticalAlign=middle;strokeColor=#0e8088;" parent="1" vertex="1">
          <mxGeometry x="163.5" y="1702" width="30" height="30" as="geometry" />
        </mxCell>
        <mxCell id="KG3A8D6R6zFbuDHCj5au-34" value="&lt;font style=&quot;font-size: 16px&quot;&gt;3&lt;/font&gt;" style="ellipse;whiteSpace=wrap;html=1;aspect=fixed;fillColor=#d0cee2;strokeColor=#56517e;rounded=1;" parent="1" vertex="1">
          <mxGeometry x="273" y="1729" width="80" height="80" as="geometry" />
        </mxCell>
        <mxCell id="KG3A8D6R6zFbuDHCj5au-35" value="&lt;font style=&quot;font-size: 12px&quot;&gt;2&lt;/font&gt;" style="ellipse;whiteSpace=wrap;html=1;aspect=fixed;labelBackgroundColor=none;labelBorderColor=none;fontSize=16;fillColor=#d0cee2;align=center;verticalAlign=middle;strokeColor=#56517e;" parent="1" vertex="1">
          <mxGeometry x="312.5" y="1701" width="30" height="30" as="geometry" />
        </mxCell>
        <mxCell id="KG3A8D6R6zFbuDHCj5au-36" value="&lt;font style=&quot;font-size: 12px&quot;&gt;1&lt;/font&gt;" style="ellipse;whiteSpace=wrap;html=1;aspect=fixed;labelBackgroundColor=none;labelBorderColor=none;fontSize=16;fillColor=#d0cee2;align=center;verticalAlign=middle;strokeColor=#56517e;" parent="1" vertex="1">
          <mxGeometry x="282.5" y="1701" width="30" height="30" as="geometry" />
        </mxCell>
        <mxCell id="KG3A8D6R6zFbuDHCj5au-37" value="&lt;font style=&quot;font-size: 16px&quot;&gt;3&lt;/font&gt;" style="ellipse;whiteSpace=wrap;html=1;aspect=fixed;fillColor=#fad7ac;strokeColor=#b46504;rounded=1;" parent="1" vertex="1">
          <mxGeometry x="394" y="1729" width="80" height="80" as="geometry" />
        </mxCell>
        <mxCell id="KG3A8D6R6zFbuDHCj5au-38" value="&lt;font style=&quot;font-size: 12px&quot;&gt;2&lt;/font&gt;" style="ellipse;whiteSpace=wrap;html=1;aspect=fixed;labelBackgroundColor=none;labelBorderColor=none;fontSize=16;fillColor=#fad7ac;align=center;verticalAlign=middle;strokeColor=#b46504;" parent="1" vertex="1">
          <mxGeometry x="433.5" y="1701" width="30" height="30" as="geometry" />
        </mxCell>
        <mxCell id="KG3A8D6R6zFbuDHCj5au-39" value="&lt;font style=&quot;font-size: 12px&quot;&gt;1&lt;/font&gt;" style="ellipse;whiteSpace=wrap;html=1;aspect=fixed;labelBackgroundColor=none;labelBorderColor=none;fontSize=16;fillColor=#fad7ac;align=center;verticalAlign=middle;strokeColor=#b46504;" parent="1" vertex="1">
          <mxGeometry x="403.5" y="1701" width="30" height="30" as="geometry" />
        </mxCell>
        <mxCell id="KG3A8D6R6zFbuDHCj5au-40" value="&lt;font style=&quot;font-size: 16px&quot;&gt;3&lt;/font&gt;" style="ellipse;whiteSpace=wrap;html=1;aspect=fixed;fillColor=#bac8d3;strokeColor=#23445d;rounded=1;" parent="1" vertex="1">
          <mxGeometry x="514" y="1729" width="80" height="80" as="geometry" />
        </mxCell>
        <mxCell id="KG3A8D6R6zFbuDHCj5au-41" value="&lt;font style=&quot;font-size: 12px&quot;&gt;2&lt;/font&gt;" style="ellipse;whiteSpace=wrap;html=1;aspect=fixed;labelBackgroundColor=none;labelBorderColor=none;fontSize=16;fillColor=#bac8d3;align=center;verticalAlign=middle;strokeColor=#23445d;" parent="1" vertex="1">
          <mxGeometry x="553.5" y="1701" width="30" height="30" as="geometry" />
        </mxCell>
        <mxCell id="KG3A8D6R6zFbuDHCj5au-42" value="&lt;font style=&quot;font-size: 12px&quot;&gt;1&lt;/font&gt;" style="ellipse;whiteSpace=wrap;html=1;aspect=fixed;labelBackgroundColor=none;labelBorderColor=none;fontSize=16;fillColor=#bac8d3;align=center;verticalAlign=middle;strokeColor=#23445d;" parent="1" vertex="1">
          <mxGeometry x="523.5" y="1701" width="30" height="30" as="geometry" />
        </mxCell>
        <mxCell id="Ls9zdPkwpk9tm-7kYcc9-4" value="" style="ellipse;whiteSpace=wrap;html=1;aspect=fixed;labelBackgroundColor=none;labelBorderColor=none;fontSize=16;fillColor=#fad7ac;align=center;verticalAlign=middle;strokeColor=#b46504;" vertex="1" parent="1">
          <mxGeometry x="269" y="2164" width="30" height="30" as="geometry" />
        </mxCell>
        <mxCell id="Ls9zdPkwpk9tm-7kYcc9-6" value="" style="ellipse;whiteSpace=wrap;html=1;aspect=fixed;labelBackgroundColor=none;labelBorderColor=none;fontSize=16;fillColor=#bac8d3;align=center;verticalAlign=middle;strokeColor=#23445d;" vertex="1" parent="1">
          <mxGeometry x="419" y="2156" width="30" height="30" as="geometry" />
        </mxCell>
      </root>
    </mxGraphModel>
  </diagram>
</mxfile>
